<svg width="14" height="14" viewBox="0 0 14 14" fill="none" xmlns="http://www.w3.org/2000/svg">
<path d="M0.292893 12.2929C-0.0976311 12.6834 -0.0976311 13.3166 0.292893 13.7071C0.683418 14.0976 1.31658 14.0976 1.70711 13.7071L1 13L0.292893 12.2929ZM14 0.999999C14 0.447715 13.5523 -5.83668e-07 13 -5.83668e-07L4 -5.83668e-07C3.44772 -5.83668e-07 3 0.447715 3 0.999999C3 1.55228 3.44772 2 4 2H12V10C12 10.5523 12.4477 11 13 11C13.5523 11 14 10.5523 14 10L14 0.999999ZM1 13L1.70711 13.7071L13.7071 1.70711L13 0.999999L12.2929 0.292893L0.292893 12.2929L1 13Z" fill="white"/>
</svg>
